General
Complete name : Clash Of The Titans.2010.DvdRip.Xvid {1337x}-Noir.avi
Format : AVI
Format/Info : Audio Video Interleave
File size : 702 MiB
Duration : 1h 44mn
Overall bit rate : 939 Kbps
Writing application : Noir's Hyper HD Xvid
Writing library : VirtualDub build 32817/release
Copyright : By Noir
Encoded_Original : Noir's Shit

Video
Format : MPEG-4 Visual
Format profile : Streaming Video@L1
Format settings, BVOP : Yes
Format settings, QPel : No
Format settings, GMC : No warppoints
Format settings, Matrix : Default
Muxing mode : Packet Bitstream
Codec ID : XVID
Codec ID/Hint : XviD
Duration : 1h 44mn
Bit rate : 812 Kbps
Width : 672 pixels
Height : 288 pixels
Display aspect ratio : 2.35
Frame rate : 23.976 fps
Resolution : 24 bits
Colorimetry : 4:2:0
Scan type : Progressive
Bits/(Pixel*Frame) : 0.175
Stream size : 607 MiB (86%)
Writing library : XviD 55

Audio
Format : MPEG Audio
Format version : Version 1
Format profile : Layer 3
Codec ID : 55
Codec ID/Hint : MP3
Duration : 1h 44mn
Bit rate mode : Variable
Bit rate : 114 Kbps
Channel(s) : 2 channels
Sampling rate : 44.1 KHz
Resolution : 16 bits
Stream size : 85.5 MiB (12%)
Alignment : Aligned on interleaves
Interleave, duration : 26 ms (0.63 video frame)
Interleave, preload duration : 513 ms
Writing library : LAME3.98.4

Subtitles included: Romanian

IMDB link: http://www.imdb.com/title/tt0800320/